<?xml version="1.0" standalone="no"?>
<!DOCTYPE svg PUBLIC "-//W3C//DTD SVG 20010904//EN"
 "http://www.w3.org/TR/2001/REC-SVG-20010904/DTD/svg10.dtd">
<svg version="1.0" xmlns="http://www.w3.org/2000/svg"
 width="211.000000pt" height="39.000000pt" viewBox="0 0 211.000000 39.000000"
 preserveAspectRatio="xMidYMid meet" fill="#fff">

<g transform="translate(0.000000,39.000000) scale(0.100000,-0.100000)"
fill="#000000" stroke="none">
<path d="M1900 349 c-49 -14 -80 -51 -80 -97 0 -57 22 -79 100 -102 77 -23 90
-34 66 -58 -14 -14 -20 -14 -70 2 -31 9 -58 21 -61 26 -11 17 -23 11 -43 -24
-24 -40 -19 -47 48 -71 55 -19 153 -19 190 0 36 19 50 43 50 88 0 51 -30 82
-100 103 -63 19 -86 35 -75 54 9 15 39 12 94 -9 l49 -18 17 35 c16 34 16 37 0
48 -18 13 -104 35 -133 33 -9 0 -33 -5 -52 -10z"/>
<path d="M740 180 l0 -170 146 0 145 0 -3 38 -3 37 -92 3 c-91 3 -93 3 -93 27
0 23 3 24 83 27 l82 3 0 35 0 35 -83 3 -83 3 3 27 c3 27 4 27 91 30 l87 3 0
34 0 35 -140 0 -140 0 0 -170z"/>
<path d="M1080 180 l0 -170 125 0 125 0 0 40 0 40 -75 0 -75 0 0 130 0 130
-50 0 -50 0 0 -170z"/>
<path d="M1370 180 l0 -170 46 0 46 0 -4 95 c-2 52 -1 95 2 95 3 0 19 -35 35
-78 30 -75 32 -77 65 -77 33 0 35 3 65 72 16 39 33 75 38 79 4 4 7 -36 7 -89
l0 -97 45 0 45 0 0 170 0 170 -59 0 -58 0 -39 -90 c-21 -50 -41 -90 -44 -90
-3 0 -22 41 -44 90 l-39 90 -53 0 -54 0 0 -170z"/>
<path d="M83 295 c-47 -20 -75 -70 -70 -122 6 -59 28 -88 82 -109 46 -17 47
-17 103 7 68 28 121 29 182 0 53 -24 79 -26 125 -7 68 29 95 118 55 183 -37
62 -109 79 -180 43 -50 -25 -116 -26 -171 0 -52 23 -82 24 -126 5z"/>
</g>
</svg>
